<svg width="204" height="40" xmlns="http://www.w3.org/2000/svg">
 <!-- Created with Method Draw - http://github.com/duopixel/Method-Draw/ -->
 <g>
  <title>background</title>
  <rect fill="none" id="canvas_background" height="42" width="206" y="-1" x="-1"/>
 </g>
 <g>
  <title>Layer 1</title>
  <g id="svg_13">
   <g transform="matrix(0.374602, 0, 0, 0.406999, -18.0042, -59.6233)" id="svg_6"/>
   <g transform="matrix(0.374602, 0, 0, 0.406999, -18.0042, -59.6233)" id="svg_5">
    <g id="svg_8">
     <polyline id="svg_9" stroke-width="5" stroke-miterlimit="10" stroke-linejoin="round" stroke-linecap="round" stroke="#231F20" points="53.49557113647461,188.33560037612915 94.05259704589844,159.18960428237915 134.00155639648438,188.33560037612915 " fill="none"/>
     <path id="svg_10" stroke-width="5" stroke-miterlimit="10" stroke-linejoin="round" stroke-linecap="round" stroke="#231F20" fill="none" d="m82.475571,231.51062l0,-25.387009c0,0 3.34198,-5.843002 10.42804,-5.843002c7.083977,0 10.424988,5.843002 10.424988,5.843002l0,25.387009"/>
     <polyline id="svg_11" stroke-width="5" stroke-miterlimit="10" stroke-linejoin="round" stroke-linecap="round" stroke="#231F20" points="68.33659362792969,175.54461526870728 68.33659362792969,159.18960428237915 77.43260192871094,159.18960428237915 77.43260192871094,169.8066086769104 " fill="none"/>
     <path id="svg_12" stroke-width="5" stroke-miterlimit="10" stroke-linejoin="round" stroke-linecap="round" stroke="#231F20" fill="none" d="m128.538544,184.349609l0,42.867004c0,3.768997 -3.053947,6.821991 -6.821945,6.821991l-55.936035,0c-3.768993,0 -6.821972,-3.053986 -6.821972,-6.821991l0,-42.807007"/>
    </g>
   </g>
  </g>
  <g id="svg_24">
   <g transform="matrix(0.988876, 0, 0, 0.727272, 2.80213, 4.83839)" id="svg_18">
    <path id="svg_19" d="m68.144409,40.763889c0,0.600002 -0.400017,1 -1,1l-24.000038,0c-0.599991,0 -1,-0.399998 -1,-1l0,-37.999999c0,-0.6 0.400009,-1 1,-1l13,0l0,-2l-13,0c-1.699982,0 -3,1.3 -3,3l0,37.999999c0,1.700001 1.300018,3 3,3l24.000038,0c1.700005,0 3,-1.299999 3,-3l0,-26.999999l-2,0l0,26.999999z"/>
    <polygon id="svg_20" points="64.14439296722412,5.76388692855835 64.14439296722412,-0.236113041639328 62.14437770843506,-0.236113041639328 62.14437770843506,5.76388692855835 56.14437389373779,5.76388692855835 56.14437389373779,7.76388692855835 62.14437770843506,7.76388692855835 62.14437770843506,13.763887405395508 64.14439296722412,13.763887405395508 64.14439296722412,7.76388692855835 70.14440441131592,7.76388692855835 70.14440441131592,5.76388692855835 "/>
    <rect id="svg_21" y="16.763887" x="48.144452" width="10" height="2"/>
    <rect id="svg_22" y="24.763887" x="48.144452" width="14" height="2"/>
    <rect id="svg_23" y="32.763887" x="48.144452" width="10" height="2"/>
   </g>
  </g>
  <defs>
   <style>.cls-1{fill:none;stroke:#000;stroke-linejoin:round;stroke-width:2px;}</style>
  </defs>
  <g id="svg_88">
   <g transform="matrix(0.994429, 0, 0, 1.02778, 12.8061, 7.25865)" id="svg_79">
    <rect stroke-width="0" id="svg_81" y="-2.278689" x="69.581506" width="30" ry="2" rx="2" height="30" class="cls-1"/>
    <line stroke-width="0" id="svg_82" y2="5.721311" y1="5.721311" x2="95.581506" x1="79.581506" class="cls-1"/>
    <line stroke-width="0" id="svg_83" y2="12.721311" y1="12.721311" x2="95.581506" x1="79.581506" class="cls-1"/>
    <line stroke-width="0" id="svg_84" y2="19.721311" y1="19.721311" x2="95.581506" x1="79.581506" class="cls-1"/>
    <rect stroke-width="0" id="svg_85" y="4.721311" x="74.581506" width="2" height="2" class="cls-1"/>
    <rect stroke-width="0" id="svg_86" y="11.721311" x="74.581506" width="2" height="2" class="cls-1"/>
    <rect stroke-width="0" id="svg_87" y="18.721311" x="74.581506" width="2" height="2" class="cls-1"/>
   </g>
  </g>
  <g id="svg_16">
   <g id="svg_7" transform="matrix(0.0615269, 0, 0, 0.062829, -94.0891, -24.577)">
    <path d="m3761.000488,971.790466c-68.399902,0 -132.699707,-26.600098 -181,-75.000122c-48.399902,-48.299927 -75,-112.599976 -75,-181s26.600098,-132.699951 75,-181c48.300293,-48.400085 112.600098,-75.000061 181,-75.000061s132.700195,26.599976 181,75.000061c48.399902,48.400024 75,112.600098 75,181s-26.600098,132.700073 -75,181s-112.600098,75.000122 -181,75.000122zm0,-490.900208c-62.699707,0 -121.699707,24.400024 -166.100098,68.80011c-91.599609,91.599976 -91.599609,240.599976 0,332.200073c44.400391,44.400024 103.400391,68.799927 166.100098,68.799927c62.700195,0 121.700195,-24.399902 166.100098,-68.799927c91.600098,-91.599976 91.600098,-240.600098 0,-332.200073c-44.399902,-44.400085 -103.399902,-68.80011 -166.100098,-68.80011z" fill="#000000" id="svg_14" stroke-width="99"/>
    <rect fill="#000000" height="21.1" transform="matrix(0.7071, 0.7071, -0.7071, 0.7071, 256, -106.039)" width="490.9" x="2814.057434" y="-1907.809488" id="svg_15" stroke-width="99"/>
   </g>
  </g>
  <g id="svg_31">
   <g transform="matrix(0.971324, 0, 0, 0.971233, -108.827, -6.43123)" id="svg_26">
    <rect x="279.273021" y="11.600481" id="svg_28" width="32.001" height="32" fill="none"/>
   </g>
   <g transform="matrix(0.971324, 0, 0, 0.971233, -108.827, -6.43123)" id="svg_25">
    <path id="svg_29" d="m311.273193,34.601479c0,-3.916998 -2.505981,-7.239996 -5.997986,-8.476995l0,-10.524002l-2,0l0,-2.000999l2,0l0,-1.999001l-23,0c-0.083984,0.004002 -0.708008,-0.007999 -1.445984,0.354c-0.748047,0.332001 -1.590027,1.291 -1.554993,2.646c0,0.006001 0.000977,0.012001 0.000977,0.018002l0,26.981997c0,2 2,2 2,2l21.080994,0l-0.007019,-0.003998c4.937012,-0.041 8.924011,-4.050003 8.924011,-8.995003zm-29.146973,-19.019999c-0.17804,-0.025997 -0.434998,-0.112 -0.579041,-0.237999c-0.138,-0.133999 -0.256958,-0.243 -0.271973,-0.743c0.03302,-0.646 0.19397,-0.686001 0.447021,-0.855999c0.129944,-0.065002 0.289001,-0.107002 0.403992,-0.125c0.117004,-0.021999 0.146973,-0.014 0.148987,-0.02l19,0l0,2.000999l-19,0c-0.002014,0 -0.031982,0.001999 -0.148987,-0.019001zm1.146973,26.018999l0,-23.999998l20,0l0,8.060001c-0.328979,-0.037003 -0.662964,-0.060001 -1.002014,-0.060001c-2.141968,0 -4.105957,0.750999 -5.651001,2l-11.346985,0l0,2l9.515991,0c-0.412964,0.615997 -0.742981,1.289001 -0.994995,2l-8.520996,0l0,1.999998l8.057007,0c-0.036011,0.329002 -0.059021,0.662003 -0.059021,1.000999c0,2.829002 1.307007,5.349998 3.348022,6.999001l-13.346008,0zm19,0c-3.86499,-0.007996 -6.994019,-3.135002 -7,-6.999001c0.005981,-3.864996 3.13501,-6.994997 7,-6.999998c3.86499,0.006001 6.992004,3.135002 7,6.999998c-0.007996,3.863998 -3.13501,6.991005 -7,6.999001zm-1,-17.999998l-16,0l0,2l16,0l0,-2z"/>
    <path id="svg_30" d="m307.273193,35.600479l0,-2.000999l-1.662964,0c-0.063049,-0.211998 -0.14502,-0.413002 -0.245056,-0.606003l1.187012,-1.186995l-1.415955,-1.415001l-1.165039,1.166c-0.219971,-0.123001 -0.451965,-0.221001 -0.697021,-0.293999l0,-1.663002l-2,0l0,1.662003c-0.228943,0.067997 -0.445984,0.157997 -0.651978,0.269997l-1.140991,-1.139999l-1.414978,1.415001l1.139954,1.139997c-0.112,0.207001 -0.201965,0.424004 -0.270996,0.653l-1.661987,0l0,2l1.661987,0c0.072998,0.246002 0.171997,0.479004 0.295044,0.697998l-1.165039,1.163002l1.413025,1.416l1.187988,-1.186996c0.192017,0.100998 0.393982,0.181999 0.60498,0.244995l0,1.665001l2.002014,0l0,-1.665001c0.229004,-0.068001 0.445007,-0.157997 0.651001,-0.269997l1.212036,1.211998l1.41394,-1.416l-1.211975,-1.209999c0.111023,-0.206001 0.200989,-0.422997 0.27002,-0.651001l1.664978,0zm-5.000977,0.499001c-0.829041,-0.001999 -1.498047,-0.670998 -1.501038,-1.5c0.002991,-0.829002 0.671997,-1.498001 1.501038,-1.500999c0.828979,0.002998 1.497986,0.671997 1.5,1.500999c-0.002014,0.829002 -0.671021,1.498001 -1.5,1.5z"/>
   </g>
  </g>
 </g>
</svg>